<?xml version="1.0" encoding="UTF-8"?>
<svg width="700pt" height="700pt" version="1.1" viewBox="0 0 700 700" xmlns="http://www.w3.org/2000/svg">
 <g>
  <path d="m144.67 280c0.007812-41.379 12.516-81.793 35.891-115.94 23.375-34.145 56.52-60.434 95.09-75.418 38.574-14.984 80.773-17.965 121.07-8.5469 40.297 9.4141 76.805 30.781 104.75 61.305l-82.691 27.57c-6.3359 2.1094-11.066 7.4375-12.41 13.977-1.3438 6.5391 0.90625 13.301 5.8984 17.734 4.9922 4.4336 11.973 5.8633 18.309 3.7578l112-37.332c3.7266-1.2422 6.9688-3.6289 9.2617-6.8203 2.2891-3.1914 3.5195-7.0234 3.5039-10.953v-112c0-6.668-3.5547-12.828-9.332-16.164-5.7773-3.3359-12.891-3.3359-18.668 0-5.7734 3.3359-9.332 9.4961-9.332 16.164v68.191c-45.863-44.402-107.4-68.902-171.23-68.176-63.836 0.73047-124.8 26.633-169.63 72.07-44.84 45.441-69.922 106.75-69.801 170.58 0 6.668 3.5586 12.832 9.3359 16.164 5.7734 3.3359 12.891 3.3359 18.664 0 5.7773-3.332 9.3359-9.4961 9.3359-16.164z"/>
  <path d="m574 261.33c-4.9492 0-9.6992 1.9688-13.199 5.4688s-5.4688 8.25-5.4688 13.199c-0.007812 41.379-12.516 81.793-35.891 115.94-23.375 34.145-56.52 60.434-95.09 75.418-38.574 14.984-80.773 17.965-121.07 8.5469-40.297-9.4141-76.805-30.781-104.75-61.305l82.691-27.57c6.3359-2.1094 11.066-7.4375 12.41-13.977 1.3438-6.5391-0.90625-13.301-5.8984-17.734-4.9922-4.4336-11.973-5.8633-18.309-3.7578l-112 37.332c-3.7266 1.2422-6.9688 3.6289-9.2617 6.8203-2.2891 3.1914-3.5195 7.0234-3.5039 10.953v112c0 6.668 3.5547 12.828 9.332 16.164 5.7773 3.3359 12.891 3.3359 18.668 0 5.7734-3.3359 9.332-9.4961 9.332-16.164v-68.191c45.863 44.402 107.4 68.902 171.23 68.176 63.836-0.73047 124.8-26.633 169.63-72.07 44.84-45.441 69.922-106.75 69.801-170.58 0-4.9492-1.9688-9.6992-5.4688-13.199s-8.25-5.4688-13.199-5.4688z"/>
 </g>
</svg>
