<?xml version="1.0" encoding="UTF-8"?>
<svg width="30px" height="30px" version="1.1" viewBox="0 0 700 700" xmlns="http://www.w3.org/2000/svg">
 <path d="m581.94 245h-126.92v-17.5h125.82l-3.3477-53.594c-0.57422-9.2188-8.2305-16.406-17.469-16.406h-105.01v-17.5c0-57.902-47.102-105-105.01-105s-105.01 47.102-105.01 105v17.5h-105c-9.2383 0-16.895 7.1875-17.469 16.406l-3.3438 53.594h125.82v17.5h-126.91l-13.102 210c0 38.598 31.406 70 70.004 70h350.02c38.602 0 70.008-31.402 69.973-71.094zm-161.92 0h-140.01v-17.5h140.01zm0-87.5h-140.01l-0.003906-17.5c0-38.598 31.406-70 70.004-70 38.602 0 70.004 31.402 70.004 70z"/>
</svg>
